<svg id="Layer_1" data-name="Layer 1" xmlns="http://www.w3.org/2000/svg" xmlns:xlink="http://www.w3.org/1999/xlink" viewBox="0 0 173.13 154.48"><defs><style>.cls-1{fill:url(#radial-gradient);}</style><radialGradient id="radial-gradient" cx="85.93" cy="76.76" r="75.39" gradientUnits="userSpaceOnUse"><stop offset="0" stop-color="#008ecf"/><stop offset="1" stop-color="#003c78"/></radialGradient></defs><title>ef-puzzle</title><path class="cls-1" d="M84.45,10.23S98.64,11.58,100,22.4s-6.76,9.8-5.75,14.87,7.74,5.05,14.51,4.39h29.09c2.74,1.74,1.2,9.76,1.23,14.43.12,17-11.37,12.27-16.44,8.44-7-5.3-9.3-6.79-15.39-6.12s-11.58,5.4-11.58,15.41c0,9.78,3.76,15.78,13.92,15.78,8.83,0,19.49-12.84,26.45,7,12.67,36-12.72,50.45-12.72,50.45h42.81V6.51H5.74V147H82.36s13.92-1.78,13.58-13.27S84.78,121.28,77,121.61c-4.86.21-34.48.57-43.44.46L33.5,111c0-34.19,18.51-21,24.58-21s10.14-2.37,11.49-11.15-2-20.28-11.15-19.27S30.74,87,30,52.14c-.1-4.87.12-9.59,2.37-11.83l30.77.1C71.28,41.08,78,39,78,32.2s-11.15-3.45-8.11-13S84.45,10.23,84.45,10.23Z"/></svg>